<svg id="visual" viewBox="0 0 900 600" width="900" height="600" xmlns="http://www.w3.org/2000/svg" xmlns:xlink="http://www.w3.org/1999/xlink" version="1.1"><path d="M0 43L15 42C30 41 60 39 90 34C120 29 150 21 180 23C210 25 240 37 270 37C300 37 330 25 360 20C390 15 420 17 450 23C480 29 510 39 540 42C570 45 600 41 630 38C660 35 690 33 720 31C750 29 780 27 810 28C840 29 870 33 885 35L900 37L900 0L885 0C870 0 840 0 810 0C780 0 750 0 720 0C690 0 660 0 630 0C600 0 570 0 540 0C510 0 480 0 450 0C420 0 390 0 360 0C330 0 300 0 270 0C240 0 210 0 180 0C150 0 120 0 90 0C60 0 30 0 15 0L0 0Z" fill="#313749"></path><path d="M0 67L15 67C30 67 60 67 90 60C120 53 150 39 180 39C210 39 240 53 270 55C300 57 330 47 360 41C390 35 420 33 450 38C480 43 510 55 540 58C570 61 600 55 630 55C660 55 690 61 720 64C750 67 780 67 810 67C840 67 870 67 885 67L900 67L900 35L885 33C870 31 840 27 810 26C780 25 750 27 720 29C690 31 660 33 630 36C600 39 570 43 540 40C510 37 480 27 450 21C420 15 390 13 360 18C330 23 300 35 270 35C240 35 210 23 180 21C150 19 120 27 90 32C60 37 30 39 15 40L0 41Z" fill="#2b3141"></path><path d="M0 109L15 106C30 103 60 97 90 87C120 77 150 63 180 65C210 67 240 85 270 88C300 91 330 79 360 74C390 69 420 71 450 76C480 81 510 89 540 92C570 95 600 93 630 91C660 89 690 87 720 87C750 87 780 89 810 91C840 93 870 95 885 96L900 97L900 65L885 65C870 65 840 65 810 65C780 65 750 65 720 62C690 59 660 53 630 53C600 53 570 59 540 56C510 53 480 41 450 36C420 31 390 33 360 39C330 45 300 55 270 53C240 51 210 37 180 37C150 37 120 51 90 58C60 65 30 65 15 65L0 65Z" fill="#262b3a"></path><path d="M0 187L15 177C30 167 60 147 90 135C120 123 150 119 180 127C210 135 240 155 270 158C300 161 330 147 360 144C390 141 420 149 450 149C480 149 510 141 540 141C570 141 600 149 630 154C660 159 690 161 720 158C750 155 780 147 810 143C840 139 870 139 885 139L900 139L900 95L885 94C870 93 840 91 810 89C780 87 750 85 720 85C690 85 660 87 630 89C600 91 570 93 540 90C510 87 480 79 450 74C420 69 390 67 360 72C330 77 300 89 270 86C240 83 210 65 180 63C150 61 120 75 90 85C60 95 30 101 15 104L0 107Z" fill="#212532"></path><path d="M0 247L15 245C30 243 60 239 90 224C120 209 150 183 180 183C210 183 240 209 270 214C300 219 330 203 360 201C390 199 420 211 450 214C480 217 510 211 540 215C570 219 600 233 630 237C660 241 690 235 720 229C750 223 780 217 810 210C840 203 870 195 885 191L900 187L900 137L885 137C870 137 840 137 810 141C780 145 750 153 720 156C690 159 660 157 630 152C600 147 570 139 540 139C510 139 480 147 450 147C420 147 390 139 360 142C330 145 300 159 270 156C240 153 210 133 180 125C150 117 120 121 90 133C60 145 30 165 15 175L0 185Z" fill="#1c1f2b"></path><path d="M0 271L15 270C30 269 60 267 90 254C120 241 150 217 180 214C210 211 240 229 270 233C300 237 330 227 360 228C390 229 420 241 450 241C480 241 510 229 540 234C570 239 600 261 630 267C660 273 690 263 720 254C750 245 780 237 810 229C840 221 870 213 885 209L900 205L900 185L885 189C870 193 840 201 810 208C780 215 750 221 720 227C690 233 660 239 630 235C600 231 570 217 540 213C510 209 480 215 450 212C420 209 390 197 360 199C330 201 300 217 270 212C240 207 210 181 180 181C150 181 120 207 90 222C60 237 30 241 15 243L0 245Z" fill="#161a24"></path><path d="M0 343L15 338C30 333 60 323 90 323C120 323 150 333 180 344C210 355 240 367 270 369C300 371 330 363 360 350C390 337 420 319 450 307C480 295 510 289 540 297C570 305 600 327 630 335C660 343 690 337 720 336C750 335 780 339 810 350C840 361 870 379 885 388L900 397L900 203L885 207C870 211 840 219 810 227C780 235 750 243 720 252C690 261 660 271 630 265C600 259 570 237 540 232C510 227 480 239 450 239C420 239 390 227 360 226C330 225 300 235 270 231C240 227 210 209 180 212C150 215 120 239 90 252C60 265 30 267 15 268L0 269Z" fill="#14171f"></path><path d="M0 355L15 351C30 347 60 339 90 342C120 345 150 359 180 370C210 381 240 389 270 390C300 391 330 385 360 374C390 363 420 347 450 333C480 319 510 307 540 314C570 321 600 347 630 355C660 363 690 353 720 353C750 353 780 363 810 374C840 385 870 397 885 403L900 409L900 395L885 386C870 377 840 359 810 348C780 337 750 333 720 334C690 335 660 341 630 333C600 325 570 303 540 295C510 287 480 293 450 305C420 317 390 335 360 348C330 361 300 369 270 367C240 365 210 353 180 342C150 331 120 321 90 321C60 321 30 331 15 336L0 341Z" fill="#13161e"></path><path d="M0 397L15 392C30 387 60 377 90 380C120 383 150 399 180 409C210 419 240 423 270 422C300 421 330 415 360 406C390 397 420 385 450 370C480 355 510 337 540 340C570 343 600 367 630 374C660 381 690 371 720 373C750 375 780 389 810 403C840 417 870 431 885 438L900 445L900 407L885 401C870 395 840 383 810 372C780 361 750 351 720 351C690 351 660 361 630 353C600 345 570 319 540 312C510 305 480 317 450 331C420 345 390 361 360 372C330 383 300 389 270 388C240 387 210 379 180 368C150 357 120 343 90 340C60 337 30 345 15 349L0 353Z" fill="#12151d"></path><path d="M0 535L15 533C30 531 60 527 90 528C120 529 150 535 180 532C210 529 240 517 270 511C300 505 330 505 360 510C390 515 420 525 450 525C480 525 510 515 540 515C570 515 600 525 630 526C660 527 690 519 720 520C750 521 780 531 810 536C840 541 870 541 885 541L900 541L900 443L885 436C870 429 840 415 810 401C780 387 750 373 720 371C690 369 660 379 630 372C600 365 570 341 540 338C510 335 480 353 450 368C420 383 390 395 360 404C330 413 300 419 270 420C240 421 210 417 180 407C150 397 120 381 90 378C60 375 30 385 15 390L0 395Z" fill="#12151c"></path><path d="M0 559L15 559C30 559 60 559 90 560C120 561 150 563 180 559C210 555 240 545 270 541C300 537 330 539 360 545C390 551 420 561 450 559C480 557 510 543 540 540C570 537 600 545 630 544C660 543 690 533 720 536C750 539 780 555 810 562C840 569 870 567 885 566L900 565L900 539L885 539C870 539 840 539 810 534C780 529 750 519 720 518C690 517 660 525 630 524C600 523 570 513 540 513C510 513 480 523 450 523C420 523 390 513 360 508C330 503 300 503 270 509C240 515 210 527 180 530C150 533 120 527 90 526C60 525 30 529 15 531L0 533Z" fill="#11141a"></path><path d="M0 601L15 601C30 601 60 601 90 601C120 601 150 601 180 601C210 601 240 601 270 601C300 601 330 601 360 601C390 601 420 601 450 601C480 601 510 601 540 601C570 601 600 601 630 601C660 601 690 601 720 601C750 601 780 601 810 601C840 601 870 601 885 601L900 601L900 563L885 564C870 565 840 567 810 560C780 553 750 537 720 534C690 531 660 541 630 542C600 543 570 535 540 538C510 541 480 555 450 557C420 559 390 549 360 543C330 537 300 535 270 539C240 543 210 553 180 557C150 561 120 559 90 558C60 557 30 557 15 557L0 557Z" fill="#101319"></path></svg>